# xmcd
#
# Track frame offsets: 
#        150
#        15014
#        34822
#        49451
#        68885
#        87161
#        102359
#        119058
#        132965
#        151433
#
# Disc length: 2221 seconds
#
# Revision: 0
# Processed by: cddbd v1.5.2PL0 Copyright (c) Steve Scherf et al.
# Submitted via: ExactAudioCopyFreeDBPlugin 1.0
#
DISCID=8208ab0a
DTITLE=Lori McKenna - The Bird and The Rifle
DYEAR=2016
DGENRE=Country
TTITLE0=Wreck You
TTITLE1=The Bird and The Rifle
TTITLE2=Giving Up On Your Hometown
TTITLE3=Halfway Home
TTITLE4=Humble and Kind
TTITLE5=We Were Cool
TTITLE6=Old Men Young Women
TTITLE7=All These Things
TTITLE8=Always Want You
TTITLE9=If Whiskey Were A Woman
EXTD=
EXTT0=
EXTT1=
EXTT2=
EXTT3=
EXTT4=
EXTT5=
EXTT6=
EXTT7=
EXTT8=
EXTT9=
PLAYORDER=
